<?xml version="1.0" encoding="utf-8"?>
<!-- Generator: Adobe Illustrator 15.0.2, SVG Export Plug-In . SVG Version: 6.00 Build 0)  -->
<!DOCTYPE svg PUBLIC "-//W3C//DTD SVG 1.1//EN" "http://www.w3.org/Graphics/SVG/1.1/DTD/svg11.dtd">
<svg version="1.1" id="Layer_1" xmlns="http://www.w3.org/2000/svg" xmlns:xlink="http://www.w3.org/1999/xlink" x="0px" y="0px"
	 width="96px" height="96px" viewBox="0 0 96 96" enable-background="new 0 0 96 96" xml:space="preserve">
<path fill-opacity="0.4" d="M88,49c0,29.633-10.363,40-40,40C18.366,89,8,78.633,8,49C8,19.365,18.366,9,48,9
	C77.637,9,88,19.365,88,49z"/>
<linearGradient id="SVGID_1_" gradientUnits="userSpaceOnUse" x1="344" y1="-1367.6011" x2="344" y2="-1292.765" gradientTransform="matrix(1 0 0 -1 -296 -1271)">
	<stop  offset="0" style="stop-color:#232668"/>
	<stop  offset="1" style="stop-color:#4C60C8"/>
</linearGradient>
<path fill="url(#SVGID_1_)" d="M88,48c0,29.633-10.363,40-40,40C18.366,88,8,77.633,8,48C8,18.365,18.366,8,48,8
	C77.637,8,88,18.365,88,48z"/>
<rect fill="none" width="96" height="96"/>
<linearGradient id="SVGID_2_" gradientUnits="userSpaceOnUse" x1="169.7246" y1="1996.6982" x2="169.7246" y2="2075.9443" gradientTransform="matrix(1 0 0 1 -121.7246 -1988.4453)">
	<stop  offset="0" style="stop-color:#FFFFFF"/>
	<stop  offset="1" style="stop-color:#FFFFFF;stop-opacity:0"/>
</linearGradient>
<path fill="url(#SVGID_2_)" fill-opacity="0.25" d="M48,8C18.366,8,8,18.365,8,48c0,29.633,10.366,40,40,40
	c29.637,0,40-10.367,40-40C88,18.365,77.637,8,48,8z M48,87C18.842,87,9,77.158,9,48S18.842,9,48,9s39,9.842,39,39S77.158,87,48,87z
	"/>
<g>
	<path opacity="0.05" enable-background="new    " d="M71.5,30.506H44.177L41.2,27.399c-1.821-2.438-4.958-2.502-5.096-2.503h-8.782
		c-1.525,0-2.741,0.446-3.612,1.325c-1.225,1.237-1.214,2.793-1.209,3.377c0,0.184,0,37.902,0,37.902c0,2.207,1.794,4,4,4h45
		c2.206,0,4-1.793,4-4V34.506C75.5,32.3,73.706,30.506,71.5,30.506z M41.5,54.501v-0.115l3.125-3.055l2.003,1.956
		c0.469,0.46,1.09,0.713,1.749,0.713c0.561,0,1.107-0.189,1.538-0.532l2.101-1.641v1.517c-1.146,0.211-2.248,0.607-3.218,1.157H41.5
		z M51.562,61.391c0-0.434,0.938-1.228,2.469-1.228c0.519,0,1.016,0.104,1.48,0.308c0.312,0.139,0.646,0.209,0.985,0.211v0.709
		c0,0.435-0.938,1.229-2.472,1.229C52.499,62.617,51.562,61.822,51.562,61.391z"/>
	<path opacity="0.07" enable-background="new    " d="M71.5,31.006H43.963l-3.164-3.307c-1.673-2.24-4.567-2.301-4.695-2.303h-8.782
		c-1.387,0-2.483,0.396-3.257,1.177c-1.079,1.089-1.068,2.495-1.064,3.023c0,0.133,0,37.904,0,37.904c0,1.93,1.57,3.5,3.5,3.5h45
		c1.931,0,3.5-1.57,3.5-3.5V34.506C75,32.576,73.43,31.006,71.5,31.006z M41,55.001v-0.825l3.625-3.544l2.353,2.298
		c0.375,0.368,0.872,0.57,1.398,0.57c0.447,0,0.886-0.15,1.229-0.426l2.908-2.272v2.968c-1.289,0.186-2.52,0.604-3.584,1.231H41z
		 M51.062,61.391c0-0.813,1.27-1.728,2.969-1.728c0.587,0,1.152,0.117,1.681,0.351c0.255,0.11,0.524,0.168,0.804,0.168
		c0.166,0,0.328-0.021,0.484-0.06v1.269c0,0.814-1.27,1.729-2.969,1.729S51.062,62.205,51.062,61.391z M58.516,47.22v-1.048
		l5.695,1.039v0.891l-4.839-0.907C59.311,47.183,59.064,47.16,59,47.16C58.837,47.159,58.675,47.179,58.516,47.22z"/>
	<path opacity="0.1" enable-background="new    " d="M71.5,31.506H43.75l-3.351-3.508c-1.525-2.042-4.176-2.101-4.295-2.102h-8.782
		c-1.249,0-2.225,0.346-2.902,1.029c-0.933,0.942-0.923,2.153-0.919,2.669c0.001,0.229,0,37.529,0,37.906c0,1.654,1.346,3,3,3h45
		c1.653,0,3-1.346,3-3V34.506C74.5,32.852,73.154,31.506,71.5,31.506z M40.5,53.965l4.125-4.031l2.703,2.642
		C47.61,52.848,47.983,53,48.377,53c0.334,0,0.663-0.113,0.923-0.318l3.716-2.904v4.438c-1.435,0.143-2.787,0.582-3.945,1.289H40.5
		V53.965z M54.031,59.163c0.656,0,1.289,0.132,1.882,0.392c0.19,0.084,0.394,0.127,0.603,0.127c0.295,0,0.58-0.086,0.818-0.244
		c0.059-0.037,0.114-0.078,0.166-0.125v2.078c0,1.207-1.589,2.229-3.469,2.229c-1.881,0-3.469-1.021-3.469-2.229
		S52.15,59.163,54.031,59.163z M62.5,41c0-0.827-0.673-1.5-1.5-1.5h1.5V41z M35.5,41v-1.5H37C36.173,39.5,35.5,40.173,35.5,41z
		 M37,60.501h-1.5v-1.5C35.5,59.828,36.173,60.501,37,60.501z M58.016,48.027v-2.455l6.695,1.221v1.911l-5.434-1.019
		c-0.045-0.009-0.229-0.026-0.277-0.026c-0.348,0-0.688,0.122-0.958,0.346C58.033,48.012,58.023,48.019,58.016,48.027z"/>
	<path opacity="0.15" enable-background="new    " d="M71.5,32.006H43.536l-3.538-3.708c-1.377-1.843-3.785-1.9-3.895-1.901h-8.782
		c-1.11,0-1.967,0.296-2.547,0.881c-0.786,0.793-0.778,1.821-0.774,2.315c0.001,0.167,0,37.908,0,37.908c0,1.379,1.122,2.5,2.5,2.5
		h45c1.379,0,2.5-1.121,2.5-2.5V34.506C74,33.127,72.879,32.006,71.5,32.006z M63,52.962v7.705c0,0.185-0.137,0.334-0.305,0.334
		h-0.696C62,59.688,62,56.07,62,52.773L63,52.962z M40,53.755l4.625-4.521l3.052,2.979c0.188,0.186,0.436,0.285,0.699,0.285
		c0.224,0,0.442-0.076,0.616-0.213l4.521-3.536v5.925C51.932,54.756,50.455,55.21,49.21,56H40V53.755z M54.031,58.663
		c0.725,0,1.426,0.146,2.082,0.435c0.128,0.055,0.264,0.084,0.402,0.084c0.194,0,0.387-0.059,0.545-0.162
		c0.285-0.186,0.455-0.498,0.455-0.838V45.243c0-0.129,0.094-0.218,0.145-0.244l7.551,1.377v2.931l-6.023-1.131
		c-0.029-0.006-0.152-0.018-0.188-0.018c-0.232,0-0.459,0.082-0.639,0.23C58.132,48.58,58,48.859,58,49.159v12.229
		c0,1.504-1.779,2.727-3.969,2.727c-2.19,0-3.969-1.223-3.969-2.727C50.062,59.884,51.843,58.663,54.031,58.663z M63,41.907
		l-1-0.182V41c0-0.551-0.448-1-1-1H37c-0.551,0-1,0.449-1,1v18c0,0.552,0.449,1,1,1h9.229c-0.08,0.328-0.131,0.662-0.153,1H35.305
		C35.137,61,35,60.852,35,60.666V39.334C35,39.15,35.137,39,35.305,39h27.39C62.863,39,63,39.15,63,39.334V41.907z"/>
	<path opacity="0.15" enable-background="new    " d="M71.5,32.506H43.322l-3.724-3.909c-1.229-1.644-3.394-1.699-3.494-1.701
		h-8.782c-0.972,0-1.709,0.247-2.192,0.733c-0.64,0.646-0.633,1.518-0.629,1.959c0.002,0.285,0,37.537,0,37.912c0,1.104,0.897,2,2,2
		h45c1.103,0,2-0.896,2-2V34.506C73.5,33.403,72.604,32.506,71.5,32.506z M63.5,52.547v8.12c0,0.46-0.361,0.834-0.805,0.834h-1.196
		c0.001-0.037,0.001-9.329,0.001-9.329L63.5,52.547z M39.5,53.545l4.945-4.835c0.063-0.062,0.14-0.071,0.181-0.071
		c0.04,0,0.116,0.01,0.179,0.071l3.222,3.147C48.125,51.952,48.25,52,48.377,52c0.108,0,0.217-0.035,0.309-0.105l5.33-4.167v7.438
		c-1.729,0.003-3.336,0.465-4.656,1.338H39.5V53.545z M54.031,58.163c0.794,0,1.562,0.16,2.283,0.476
		c0.062,0.028,0.133,0.043,0.201,0.043c0.096,0,0.188-0.025,0.271-0.082c0.144-0.093,0.229-0.25,0.229-0.418V45.243
		c0-0.409,0.332-0.742,0.649-0.75l8.043,1.467v3.95l-6.619-1.241c-0.028-0.006-0.062-0.009-0.092-0.009
		c-0.115,0-0.229,0.04-0.317,0.115c-0.113,0.095-0.183,0.233-0.183,0.385v12.23c0,1.776-2.005,3.226-4.472,3.226
		c-2.463,0-4.469-1.446-4.469-3.226C49.561,59.609,51.566,58.163,54.031,58.163z M63.5,42.506l-2-0.365V41
		c0-0.276-0.225-0.5-0.5-0.5H37c-0.276,0-0.5,0.224-0.5,0.5v18c0,0.275,0.224,0.5,0.5,0.5h9.905
		c-0.228,0.607-0.342,1.24-0.342,1.889c0,0.037,0,0.074,0.001,0.111H35.305c-0.444,0-0.805-0.374-0.805-0.834V39.334
		c0-0.46,0.361-0.834,0.805-0.834h27.39c0.443,0,0.805,0.374,0.805,0.834V42.506z"/>
	
		<linearGradient id="SVGID_3_" gradientUnits="userSpaceOnUse" x1="401.5" y1="-816.9995" x2="401.5" y2="-775.396" gradientTransform="matrix(1 0 0 -1 -352.5 -749)">
		<stop  offset="0" style="stop-color:#D0CBC5"/>
		<stop  offset="0.5031" style="stop-color:#FAFCEF"/>
		<stop  offset="0.9693" style="stop-color:#FFFFFF"/>
		<stop  offset="1" style="stop-color:#FFFFFF"/>
	</linearGradient>
	<path fill="url(#SVGID_3_)" d="M71.5,32.006H43.108l-3.91-4.11c-1.096-1.466-3.094-1.5-3.094-1.5h-8.782
		c-2.437,0-2.322,1.665-2.322,2.188C25.001,28.63,25,66.5,25,66.5c0,0.824,0.676,1.5,1.5,1.5h45c0.827,0,1.5-0.676,1.5-1.5V33.506
		C73,32.681,72.327,32.006,71.5,32.006z M47.102,62.001H35.305C34.588,62.001,34,61.4,34,60.667V39.334
		C34,38.601,34.588,38,35.305,38h27.39C63.412,38,64,38.6,64,39.334v3.771l-3-0.547V41H37v18h10.683
		c-0.396,0.725-0.62,1.53-0.62,2.389C47.063,61.598,47.077,61.8,47.102,62.001z M54.516,46.91v8.767
		c-0.16-0.009-0.322-0.014-0.481-0.014c-1.74,0-3.312,0.501-4.521,1.338H39v-3.666l5.096-4.983c0.291-0.285,0.77-0.285,1.059,0
		l3.223,3.148l5.664-4.43C54.176,46.964,54.346,46.918,54.516,46.91z M64,60.667c0,0.733-0.588,1.334-1.305,1.334h-1.734
		C60.986,61.8,61,61.598,61,61.391v-2.39v-7.433l3,0.562V60.667z M66.211,50.512L59,49.159v12.229c0,2.061-2.225,3.727-4.969,3.727
		c-2.742,0-4.969-1.666-4.969-3.727c0-2.059,2.227-3.729,4.969-3.729c0.91,0,1.752,0.195,2.484,0.52V45.243
		c0-0.686,0.557-1.242,1.239-1.242l8.453,1.542L66.211,50.512L66.211,50.512z"/>
	
		<linearGradient id="SVGID_4_" gradientUnits="userSpaceOnUse" x1="401.5" y1="-816.9995" x2="401.5" y2="-786" gradientTransform="matrix(1 0 0 -1 -352.5 -749)">
		<stop  offset="0" style="stop-color:#000000"/>
		<stop  offset="1" style="stop-color:#000000;stop-opacity:0"/>
	</linearGradient>
	<path fill="url(#SVGID_4_)" fill-opacity="0.06" d="M54.031,56.663c0.91,0,1.752,0.196,2.484,0.519v1
		c-0.732-0.32-1.574-0.519-2.484-0.519c-2.514,0-4.571,1.407-4.9,3.228c-0.029-0.166-0.066-0.328-0.066-0.5
		C49.062,58.333,51.289,56.663,54.031,56.663z M61,50.568v1l3,0.562v-1L61,50.568z M54.041,46.07l-5.664,4.43l-3.223-3.148
		c-0.289-0.285-0.768-0.285-1.059,0L39,52.335v1l5.096-4.983c0.291-0.285,0.77-0.285,1.059,0l3.223,3.148l5.664-4.43
		c0.135-0.106,0.304-0.152,0.476-0.16v-1C54.346,45.918,54.176,45.964,54.041,46.07z M62.695,37h-27.39
		C34.588,37,34,37.601,34,38.334v1C34,38.601,34.588,38,35.305,38h27.39C63.412,38,64,38.6,64,39.334v-1
		C64,37.601,63.412,37,62.695,37z M37,58.001v1h10.272c0.103-0.347,0.236-0.683,0.41-1H37z M71.5,67h-45c-0.824,0-1.5-0.676-1.5-1.5
		v1c0,0.824,0.676,1.5,1.5,1.5h45c0.827,0,1.5-0.676,1.5-1.5v-1C73,66.324,72.327,67,71.5,67z M57.758,43
		c-0.686,0-1.242,0.557-1.242,1.242v1c0-0.686,0.56-1.242,1.242-1.242l8.453,1.542v-1L57.758,43z"/>
	<path fill="#FFFFFF" d="M61,42H37v-1h24V42z M47.095,61.895c0.069-0.672,0.27-1.311,0.588-1.894h-0.41
		c-0.133,0.442-0.21,0.906-0.21,1.39C47.063,61.561,47.078,61.729,47.095,61.895z M66.211,50.512L59,49.159v1l7.211,1.353V50.512z
		 M64,43.106l-3-0.547v1l3,0.547V43.106z M62.695,63.001c0.717,0,1.305-0.601,1.305-1.334v-1c0,0.733-0.588,1.334-1.305,1.334H61
		v0.39c0,0.207-0.014,0.409-0.039,0.61H62.695z M71.5,32.006H43.108l-3.91-4.11c-1.096-1.466-3.094-1.5-3.094-1.5h-8.782
		c-2.437,0-2.351,1.718-2.306,2.188c0,0.012,0.001,0.174,0.001,0.443c0.076-0.68,0.492-1.63,2.305-1.63h8.782
		c0,0,1.998,0.034,3.094,1.5l3.91,4.11H71.5c0.827,0,1.5,0.675,1.5,1.5v-1C73,32.681,72.327,32.006,71.5,32.006z M54.031,56.663
		c0.162,0,0.322,0.005,0.484,0.014v-1c-0.162-0.009-0.322-0.014-0.484-0.014c-1.74,0-3.311,0.501-4.52,1.338H39v1h10.512
		C50.723,57.164,52.291,56.663,54.031,56.663z M35.305,63.001h11.797c-0.025-0.201-0.039-0.403-0.039-0.61
		c0-0.133,0.015-0.261,0.025-0.39H35.305C34.588,62.001,34,61.4,34,60.667v1C34,62.4,34.588,63.001,35.305,63.001z M54.031,66.115
		c2.744,0,4.969-1.666,4.969-3.727v-1c0,2.061-2.225,3.727-4.969,3.727c-2.514,0-4.571-1.405-4.9-3.227
		c-0.029,0.166-0.066,0.327-0.066,0.5C49.062,64.449,51.289,66.115,54.031,66.115z"/>
</g>
</svg>
